<?xml version="1.0" encoding="iso-8859-1"?>
<!-- Generator: Adobe Illustrator 19.0.0, SVG Export Plug-In . SVG Version: 6.00 Build 0)  -->
<svg version="1.1" id="Layer_1" xmlns="http://www.w3.org/2000/svg" xmlns:xlink="http://www.w3.org/1999/xlink" x="0px" y="0px"
	 viewBox="0 0 496 496" style="enable-background:new 0 0 496 496;" xml:space="preserve">
<path style="fill:#DBD8C3;" d="M400,437.6v-420c0-8-9.6-17.6-17.6-17.6H113.6C105.6,0,96,9.6,96,17.6v460.8c0,8,9.6,17.6,17.6,17.6
	h228L400,437.6z"/>
<path style="fill:#C6C3AF;" d="M344,492l56-54.4v-420c0-8-9.6-17.6-17.6-17.6H344"/>
<rect x="120" y="32" style="fill:#18AA8E;" width="256" height="200"/>
<polyline style="fill:#0A997D;" points="120,32 376,32 376,232 "/>
<g>
	<polygon style="fill:#C6C3AF;" points="381.6,455.2 190.4,263.2 124.8,329.6 290.4,496 341.6,496 	"/>
	<polygon style="fill:#C6C3AF;" points="400,304.8 367.2,272.8 333.6,306.4 400,372 	"/>
	<polygon style="fill:#C6C3AF;" points="319.2,319.2 286.4,352.8 385.6,451.2 400,437.6 400,397.6 	"/>
</g>
<circle style="fill:#EA1F0A;" cx="302.4" cy="336" r="24"/>
<ellipse transform="matrix(-0.7071 -0.7071 0.7071 -0.7071 270.435 757.6769)" style="fill:#EF683F;" cx="292.138" cy="322.83" rx="4" ry="8.8"/>
<path style="fill:#AA2011;" d="M319.2,319.2c9.6,9.6,9.6,24,0,33.6s-24,9.6-33.6,0"/>
<circle style="fill:#EA1F0A;" cx="348.8" cy="289.6" r="24"/>
<ellipse transform="matrix(-0.7071 -0.7071 0.7071 -0.7071 382.057 710.0071)" style="fill:#EF683F;" cx="338.076" cy="275.877" rx="4" ry="8.8"/>
<path style="fill:#AA2011;" d="M365.6,272.8c9.6,9.6,9.6,24,0,33.6s-24,9.6-33.6,0"/>
<path style="fill:#353A3A;" d="M221.6,296H192v-29.6c0-3.2-2.4-5.6-5.6-5.6h-21.6c-3.2,0-5.6,2.4-5.6,5.6V296h-29.6
	c-3.2,0-5.6,2.4-5.6,5.6v21.6c0,3.2,2.4,5.6,5.6,5.6h29.6v29.6c0,3.2,2.4,5.6,5.6,5.6h21.6c3.2,0,5.6-2.4,5.6-5.6v-29.6h29.6
	c3.2,0,5.6-2.4,5.6-5.6v-21.6C227.2,299.2,224.8,296,221.6,296z"/>
<path style="fill:#1A1E1E;" d="M123.2,324c0,3.2,2.4,5.6,5.6,5.6h29.6v29.6c0,3.2,2.4,5.6,5.6,5.6h21.6c3.2,0,5.6-2.4,5.6-5.6v-29.6
	h29.6c3.2,0,5.6-2.4,5.6-5.6v-21.6c0-3.2-2.4-5.6-5.6-5.6H192"/>
<circle style="fill:#353A3A;" cx="175.2" cy="312.8" r="6.4"/>
<g>
	<path style="fill:#5B6060;" d="M184,269.6c0,1.6-0.8,2.4-2.4,2.4h-19.2c-1.6,0-2.4-0.8-2.4-2.4v-3.2c0-1.6,0.8-2.4,2.4-2.4h19.2
		c1.6,0,2.4,0.8,2.4,2.4V269.6z"/>
	<path style="fill:#5B6060;" d="M152,309.6c0,1.6-0.8,2.4-2.4,2.4h-19.2c-1.6,0-2.4-0.8-2.4-2.4v-3.2c0-1.6,0.8-2.4,2.4-2.4h19.2
		c1.6,0,2.4,0.8,2.4,2.4V309.6z"/>
	<path style="fill:#5B6060;" d="M224,309.6c0,1.6-0.8,2.4-2.4,2.4h-19.2c-1.6,0-2.4-0.8-2.4-2.4v-3.2c0-1.6,0.8-2.4,2.4-2.4h19.2
		c1.6,0,2.4,0.8,2.4,2.4V309.6z"/>
</g>
<path style="fill:#F9A12C;" d="M165.6,449.6c-0.8-0.8-0.8-1.6,0-2.4l45.6-45.6c0.8-0.8,1.6-0.8,2.4,0l11.2,11.2
	c0.8,0.8,0.8,1.6,0,2.4l-45.6,45.6c-0.8,0.8-1.6,0.8-2.4,0L165.6,449.6z"/>
<path style="fill:#E88813;" d="M165.6,449.6c-0.8-0.8-0.8-1.6,0-2.4l45.6-45.6c0.8-0.8,1.6-0.8,2.4,0l11.2,11.2
	c0.8,0.8,0.8,1.6,0,2.4"/>
<path style="fill:#F9A12C;" d="M213.6,449.6c-0.8-0.8-0.8-1.6,0-2.4l45.6-45.6c0.8-0.8,1.6-0.8,2.4,0l11.2,11.2
	c0.8,0.8,0.8,1.6,0,2.4l-45.6,45.6c-0.8,0.8-1.6,0.8-2.4,0L213.6,449.6z"/>
<path style="fill:#E88813;" d="M213.6,449.6c-0.8-0.8-0.8-1.6,0-2.4l45.6-45.6c0.8-0.8,1.6-0.8,2.4,0l11.2,11.2
	c0.8,0.8,0.8,1.6,0,2.4"/>
<rect x="112" y="232" style="fill:#C6C3AF;" width="272" height="16"/>
<g>
</g>
<g>
</g>
<g>
</g>
<g>
</g>
<g>
</g>
<g>
</g>
<g>
</g>
<g>
</g>
<g>
</g>
<g>
</g>
<g>
</g>
<g>
</g>
<g>
</g>
<g>
</g>
<g>
</g>
</svg>
