<svg xmlns="http://www.w3.org/2000/svg" xmlns:xlink="http://www.w3.org/1999/xlink" version="1.1" width="256" height="256" viewBox="0 0 256 256" xml:space="preserve">
<desc>Created with Fabric.js 1.7.22</desc>
<defs>
</defs>
<g transform="translate(128 128) scale(0.72 0.72)" style="">
	<g style="stroke: none; stroke-width: 0; stroke-dasharray: none; stroke-linecap: butt; stroke-linejoin: miter; stroke-miterlimit: 10; fill: none; fill-rule: nonzero; opacity: 1;" transform="translate(-175.05 -175.05000000000004) scale(3.89 3.89)" >
	<polygon points="59.67,68.42 59.67,44.36 30.33,44.36 30.33,59.89 1,59.89 1,81.69 30.33,81.69 59.67,81.69 89,81.69 89,68.42 " style="stroke: none; stroke-width: 1; stroke-dasharray: none; stroke-linecap: butt; stroke-linejoin: miter; stroke-miterlimit: 10; fill: rgb(232,107,107); fill-rule: nonzero; opacity: 1;" transform="  matrix(1 0 0 1 0 0) "/>
	<path d="M 59.667 76.761 c -0.553 0 -1 -0.447 -1 -1 V 45.359 H 31.333 v 19.795 c 0 0.553 -0.448 1 -1 1 s -1 -0.447 -1 -1 V 44.359 c 0 -0.552 0.448 -1 1 -1 h 29.333 c 0.553 0 1 0.448 1 1 v 31.401 C 60.667 76.313 60.22 76.761 59.667 76.761 z" style="stroke: none; stroke-width: 1; stroke-dasharray: none; stroke-linecap: butt; stroke-linejoin: miter; stroke-miterlimit: 10; fill: rgb(0,0,0); fill-rule: nonzero; opacity: 1;" transform=" matrix(1 0 0 1 0 0) " stroke-linecap="round" />
	<path d="M 59.667 82.688 H 1 c -0.552 0 -1 -0.447 -1 -1 V 59.891 c 0 -0.553 0.448 -1 1 -1 h 29.333 c 0.552 0 1 0.447 1 1 s -0.448 1 -1 1 H 2 v 19.797 h 57.667 c 0.553 0 1 0.447 1 1 S 60.22 82.688 59.667 82.688 z" style="stroke: none; stroke-width: 1; stroke-dasharray: none; stroke-linecap: butt; stroke-linejoin: miter; stroke-miterlimit: 10; fill: rgb(0,0,0); fill-rule: nonzero; opacity: 1;" transform=" matrix(1 0 0 1 0 0) " stroke-linecap="round" />
	<path d="M 89 82.688 H 59.667 c -0.553 0 -1 -0.447 -1 -1 s 0.447 -1 1 -1 H 88 V 69.422 H 59.667 c -0.553 0 -1 -0.447 -1 -1 s 0.447 -1 1 -1 H 89 c 0.553 0 1 0.447 1 1 v 13.266 C 90 82.24 89.553 82.688 89 82.688 z" style="stroke: none; stroke-width: 1; stroke-dasharray: none; stroke-linecap: butt; stroke-linejoin: miter; stroke-miterlimit: 10; fill: rgb(0,0,0); fill-rule: nonzero; opacity: 1;" transform=" matrix(1 0 0 1 0 0) " stroke-linecap="round" />
	<path d="M 45 67.376 c -0.552 0 -1 -0.447 -1 -1 V 53.539 l -1.756 1.126 c -0.466 0.298 -1.083 0.162 -1.381 -0.302 c -0.298 -0.465 -0.163 -1.084 0.302 -1.382 l 3.296 -2.113 c 0.308 -0.198 0.7 -0.21 1.019 -0.035 C 45.8 51.008 46 51.345 46 51.71 v 14.666 C 46 66.929 45.552 67.376 45 67.376 z" style="stroke: none; stroke-width: 1; stroke-dasharray: none; stroke-linecap: butt; stroke-linejoin: miter; stroke-miterlimit: 10; fill: rgb(0,0,0); fill-rule: nonzero; opacity: 1;" transform=" matrix(1 0 0 1 0 0) " stroke-linecap="round" />
	<path d="M 45 67.376 h -3.296 c -0.552 0 -1 -0.447 -1 -1 s 0.448 -1 1 -1 H 45 c 0.552 0 1 0.447 1 1 S 45.552 67.376 45 67.376 z" style="stroke: none; stroke-width: 1; stroke-dasharray: none; stroke-linecap: butt; stroke-linejoin: miter; stroke-miterlimit: 10; fill: rgb(0,0,0); fill-rule: nonzero; opacity: 1;" transform=" matrix(1 0 0 1 0 0) " stroke-linecap="round" />
	<path d="M 48.296 67.376 H 45 c -0.552 0 -1 -0.447 -1 -1 s 0.448 -1 1 -1 h 3.296 c 0.553 0 1 0.447 1 1 S 48.849 67.376 48.296 67.376 z" style="stroke: none; stroke-width: 1; stroke-dasharray: none; stroke-linecap: butt; stroke-linejoin: miter; stroke-miterlimit: 10; fill: rgb(0,0,0); fill-rule: nonzero; opacity: 1;" transform=" matrix(1 0 0 1 0 0) " stroke-linecap="round" />
	<path d="M 43.801 31.403 l -6.887 4.85 c -0.703 0.495 -1.633 -0.188 -1.37 -1.007 l 2.559 -7.988 c 0.273 -0.852 -0.029 -1.783 -0.749 -2.313 L 30.7 20.05 c -0.697 -0.513 -0.334 -1.619 0.532 -1.619 h 8.225 c 0.895 0 1.689 -0.571 1.974 -1.419 l 2.719 -8.088 c 0.274 -0.815 1.426 -0.815 1.7 0 l 2.719 8.088 c 0.285 0.848 1.08 1.419 1.974 1.419 h 8.225 c 0.866 0 1.229 1.106 0.532 1.619 l -6.653 4.896 c -0.721 0.53 -1.022 1.461 -0.749 2.313 l 2.559 7.988 c 0.262 0.819 -0.667 1.502 -1.37 1.007 l -6.887 -4.85 C 45.48 30.897 44.52 30.897 43.801 31.403 z" style="stroke: none; stroke-width: 1; stroke-dasharray: none; stroke-linecap: butt; stroke-linejoin: miter; stroke-miterlimit: 10; fill: rgb(255,199,110); fill-rule: nonzero; opacity: 1;" transform=" matrix(1 0 0 1 0 0) " stroke-linecap="round" />
	<path d="M 36.396 37.423 c -0.392 0 -0.783 -0.125 -1.122 -0.374 c -0.668 -0.491 -0.937 -1.318 -0.683 -2.108 l 2.559 -7.987 c 0.142 -0.443 -0.015 -0.927 -0.39 -1.203 l -6.653 -4.896 c -0.672 -0.494 -0.938 -1.326 -0.678 -2.119 c 0.26 -0.793 0.968 -1.306 1.802 -1.306 h 8.225 c 0.465 0 0.878 -0.296 1.026 -0.738 l 2.719 -8.088 c 0.264 -0.785 0.97 -1.292 1.798 -1.292 s 1.534 0.507 1.798 1.292 l 2.719 8.089 c 0.148 0.441 0.561 0.737 1.026 0.737 h 8.225 c 0.835 0 1.542 0.512 1.803 1.305 c 0.26 0.793 -0.006 1.625 -0.678 2.119 l -6.653 4.896 c -0.375 0.276 -0.532 0.759 -0.39 1.202 l 2.56 7.988 c 0.253 0.791 -0.016 1.618 -0.684 2.108 c -0.67 0.49 -1.539 0.499 -2.215 0.022 l -6.887 -4.851 c -0.373 -0.263 -0.875 -0.263 -1.247 0 h 0 l -6.887 4.85 C 37.156 37.306 36.776 37.423 36.396 37.423 z M 45 30.025 c 0.622 0 1.244 0.187 1.775 0.561 l 6.636 4.673 l -2.466 -7.695 c -0.405 -1.262 0.04 -2.638 1.108 -3.424 l 6.4 -4.709 h -7.911 c -1.325 0 -2.5 -0.844 -2.923 -2.1 L 45 9.532 l -2.621 7.798 c -0.422 1.257 -1.597 2.101 -2.922 2.101 h -7.911 l 6.4 4.71 c 1.067 0.785 1.513 2.161 1.108 3.424 l -2.465 7.694 l 6.635 -4.672 C 43.756 30.212 44.378 30.025 45 30.025 z M 43.801 31.403 h 0.01 H 43.801 z" style="stroke: none; stroke-width: 1; stroke-dasharray: none; stroke-linecap: butt; stroke-linejoin: miter; stroke-miterlimit: 10; fill: rgb(0,0,0); fill-rule: nonzero; opacity: 1;" transform=" matrix(1 0 0 1 0 0) " stroke-linecap="round" />
</g>
</g>
</svg>